<svg version="1.1" xmlns="http://www.w3.org/2000/svg" viewBox="0 0 1028 426" width="1028" height="426" filter="invert(93%) hue-rotate(180deg)">
  <!-- svg-source:excalidraw -->
  
  <defs>
    <style class="style-fonts">
      @font-face {
        font-family: "Virgil";
        src: url("https://excalidraw.com/Virgil.woff2");
      }
      @font-face {
        font-family: "Cascadia";
        src: url("https://excalidraw.com/Cascadia.woff2");
      }
      @font-face {
        font-family: "Assistant";
        src: url("https://excalidraw.com/Assistant-Regular.woff2");
      }
    </style>
    
  </defs>
  <g stroke-linecap="round" transform="translate(10 10) rotate(0 504 203)"><path d="M32 0 C309.58 0, 587.16 0, 976 0 M976 0 C997.33 0, 1008 10.67, 1008 32 M1008 32 C1008 138.05, 1008 244.09, 1008 374 M1008 374 C1008 395.33, 997.33 406, 976 406 M976 406 C772.47 406, 568.94 406, 32 406 M32 406 C10.67 406, 0 395.33, 0 374 M0 374 C0 242.32, 0 110.64, 0 32 M0 32 C0 10.67, 10.67 0, 32 0" stroke="#1e1e1e" stroke-width="2.5" fill="none" stroke-dasharray="8 10"></path></g><g transform="translate(437 20) rotate(0 77.48995971679688 17.5)"><text x="0" y="24.528" font-family="Virgil, Segoe UI Emoji" font-size="28px" fill="#1e1e1e" text-anchor="start" style="white-space: pre;" direction="ltr" dominant-baseline="alphabetic">Partition 0</text></g><g stroke-linecap="round" transform="translate(54 86) rotate(0 144.5 42)"><path d="M21 0 C114.67 0, 208.34 0, 268 0 C282 0, 289 7, 289 21 C289 29.94, 289 38.88, 289 63 C289 77, 282 84, 268 84 C192.02 84, 116.03 84, 21 84 C7 84, 0 77, 0 63 C0 53.87, 0 44.74, 0 21 C0 7, 7 0, 21 0" stroke="none" stroke-width="0" fill="#ffc9c9"></path><path d="M21 0 C72.99 0, 124.97 0, 268 0 M268 0 C282 0, 289 7, 289 21 M289 21 C289 31.46, 289 41.93, 289 63 M289 63 C289 77, 282 84, 268 84 M268 84 C218.54 84, 169.07 84, 21 84 M21 84 C7 84, 0 77, 0 63 M0 63 C0 53.76, 0 44.52, 0 21 M0 21 C0 7, 7 0, 21 0" stroke="#1e1e1e" stroke-width="2.5" fill="none" stroke-dasharray="8 10"></path></g><g transform="translate(131 180) rotate(0 70.20997619628906 17.5)"><text x="0" y="24.528" font-family="Virgil, Segoe UI Emoji" font-size="28px" fill="#1e1e1e" text-anchor="start" style="white-space: pre;" direction="ltr" dominant-baseline="alphabetic">segment 2</text></g><g transform="translate(139 97) rotate(0 61.049957275390625 12.5)"><text x="0" y="17.52" font-family="Virgil, Segoe UI Emoji" font-size="20px" fill="#1e1e1e" text-anchor="start" style="white-space: pre;" direction="ltr" dominant-baseline="alphabetic">2024.06.28</text></g><g transform="translate(171 131) rotate(0 25.05998992919922 12.5)"><text x="0" y="17.52" font-family="Virgil, Segoe UI Emoji" font-size="20px" fill="#1e1e1e" text-anchor="start" style="white-space: pre;" direction="ltr" dominant-baseline="alphabetic">1 GiB</text></g><g stroke-linecap="round" transform="translate(362.5 86.5) rotate(0 144.5 42)"><path d="M21 0 C76.68 0, 132.37 0, 268 0 C282 0, 289 7, 289 21 C289 34.28, 289 47.55, 289 63 C289 77, 282 84, 268 84 C196.93 84, 125.85 84, 21 84 C7 84, 0 77, 0 63 C0 49.31, 0 35.62, 0 21 C0 7, 7 0, 21 0" stroke="none" stroke-width="0" fill="#ffc9c9"></path><path d="M21 0 C114.53 0, 208.06 0, 268 0 M268 0 C282 0, 289 7, 289 21 M289 21 C289 31.79, 289 42.59, 289 63 M289 63 C289 77, 282 84, 268 84 M268 84 C173.8 84, 79.59 84, 21 84 M21 84 C7 84, 0 77, 0 63 M0 63 C0 53.5, 0 43.99, 0 21 M0 21 C0 7, 7 0, 21 0" stroke="#1e1e1e" stroke-width="2.5" fill="none" stroke-dasharray="8 10"></path></g><g transform="translate(439.5 180.5) rotate(0 64.03598022460938 17.5)"><text x="0" y="24.528" font-family="Virgil, Segoe UI Emoji" font-size="28px" fill="#1e1e1e" text-anchor="start" style="white-space: pre;" direction="ltr" dominant-baseline="alphabetic">segment 1</text></g><g transform="translate(447.5 97.5) rotate(0 59.489959716796875 12.5)"><text x="0" y="17.52" font-family="Virgil, Segoe UI Emoji" font-size="20px" fill="#1e1e1e" text-anchor="start" style="white-space: pre;" direction="ltr" dominant-baseline="alphabetic">2024.06.29</text></g><g transform="translate(479.5 131.5) rotate(0 25.05998992919922 12.5)"><text x="0" y="17.52" font-family="Virgil, Segoe UI Emoji" font-size="20px" fill="#1e1e1e" text-anchor="start" style="white-space: pre;" direction="ltr" dominant-baseline="alphabetic">1 GiB</text></g><g stroke-linecap="round" transform="translate(671.5 87.5) rotate(0 144.5 42)"><path d="M21 0 C116.78 0, 212.55 0, 268 0 C282 0, 289 7, 289 21 C289 29.63, 289 38.26, 289 63 C289 77, 282 84, 268 84 C172.89 84, 77.78 84, 21 84 C7 84, 0 77, 0 63 C0 47.61, 0 32.23, 0 21 C0 7, 7 0, 21 0" stroke="none" stroke-width="0" fill="#b2f2bb"></path><path d="M21 0 C74.78 0, 128.56 0, 268 0 M268 0 C282 0, 289 7, 289 21 M289 21 C289 30.21, 289 39.42, 289 63 M289 63 C289 77, 282 84, 268 84 M268 84 C194.77 84, 121.54 84, 21 84 M21 84 C7 84, 0 77, 0 63 M0 63 C0 53.28, 0 43.57, 0 21 M0 21 C0 7, 7 0, 21 0" stroke="#1e1e1e" stroke-width="2.5" fill="none" stroke-dasharray="8 10"></path></g><g transform="translate(748.5 181.5) rotate(0 69.87397766113281 17.5)"><text x="0" y="24.528" font-family="Virgil, Segoe UI Emoji" font-size="28px" fill="#1e1e1e" text-anchor="start" style="white-space: pre;" direction="ltr" dominant-baseline="alphabetic">segment 0</text></g><g transform="translate(756.5 98.5) rotate(0 59.96996307373047 12.5)"><text x="0" y="17.52" font-family="Virgil, Segoe UI Emoji" font-size="20px" fill="#1e1e1e" text-anchor="start" style="white-space: pre;" direction="ltr" dominant-baseline="alphabetic">2024.06.30</text></g><g transform="translate(788.5 132.5) rotate(0 35.17997741699219 12.5)"><text x="0" y="17.52" font-family="Virgil, Segoe UI Emoji" font-size="20px" fill="#1e1e1e" text-anchor="start" style="white-space: pre;" direction="ltr" dominant-baseline="alphabetic">50 MiB</text></g><g transform="translate(60 232) rotate(0 298.5 37)" stroke="none"><path fill="#fa5252" d="M 2.66,0 Q 2.66,0 2.68,1.15 2.69,2.3 2.75,3.76 2.80,5.23 2.40,6.37 2.00,7.51 2.06,8.91 2.11,10.31 2.54,11.90 2.97,13.49 3.09,14.71 3.21,15.93 4.12,17.62 5.03,19.32 5.59,20.83 6.16,22.34 6.83,23.47 7.50,24.61 8.51,25.58 9.52,26.56 11.05,26.77 12.59,26.98 13.45,27.61 14.32,28.24 15.71,28.34 17.11,28.44 18.22,28.39 19.33,28.35 20.79,28.35 22.26,28.36 24.16,28.77 26.06,29.18 27.22,29.28 28.38,29.37 29.82,29.38 31.27,29.38 32.76,29.38 34.26,29.38 35.76,29.37 37.26,29.37 39.04,29.38 40.83,29.39 42.70,29.44 44.57,29.48 46.84,29.56 49.10,29.64 50.22,29.67 51.34,29.70 53.70,29.76 56.06,29.83 57.84,29.82 59.61,29.82 61.29,29.81 62.96,29.80 64.08,29.77 65.20,29.74 66.73,29.70 68.25,29.66 69.93,29.67 71.61,29.68 73.71,29.33 75.81,28.99 77.00,28.95 78.20,28.91 79.29,28.90 80.38,28.88 82.72,28.91 85.07,28.94 86.84,28.92 88.62,28.90 90.29,28.88 91.96,28.86 93.78,28.85 95.60,28.85 96.66,28.62 97.72,28.40 99.63,28.13 101.54,27.86 102.82,27.80 104.11,27.74 105.87,27.74 107.63,27.73 109.58,27.75 111.54,27.77 112.82,27.81 114.10,27.85 115.21,27.86 116.31,27.88 118.21,27.49 120.12,27.11 121.23,27.05 122.34,26.99 123.69,27.00 125.03,27.00 126.17,27.00 127.31,27.00 128.66,27.03 130.01,27.06 131.15,27.06 132.30,27.06 133.65,27.09 135.00,27.12 136.44,27.15 137.87,27.19 139.34,27.22 140.82,27.26 142.02,27.25 143.22,27.25 144.59,27.26 145.97,27.28 147.12,27.27 148.28,27.26 149.35,27.24 150.42,27.22 151.76,27.15 153.10,27.09 154.58,27.04 156.05,26.99 157.42,26.95 158.79,26.92 160.39,26.89 161.99,26.87 163.51,26.84 165.03,26.82 166.41,26.80 167.79,26.77 168.98,26.75 170.17,26.72 172.00,26.69 173.82,26.67 175.00,26.65 176.18,26.63 178.00,26.61 179.82,26.60 181.00,26.59 182.18,26.57 183.50,26.57 184.82,26.57 186.28,26.57 187.75,26.58 189.53,26.61 191.31,26.64 192.66,26.70 194.01,26.75 195.44,26.82 196.87,26.88 198.35,26.95 199.82,27.01 201.59,27.12 203.37,27.23 205.27,27.35 207.18,27.47 208.85,27.52 210.52,27.56 212.10,27.58 213.67,27.60 215.49,27.66 217.31,27.72 218.94,27.74 220.58,27.75 221.85,27.71 223.12,27.67 224.52,27.65 225.92,27.63 227.09,27.59 228.26,27.55 229.62,27.54 230.98,27.53 232.51,27.43 234.03,27.34 235.12,27.27 236.21,27.19 237.52,27.13 238.82,27.07 240.00,27.02 241.18,26.97 242.28,26.97 243.37,26.98 244.70,27.01 246.03,27.04 247.75,27.14 249.46,27.23 251.05,27.28 252.64,27.34 254.18,27.37 255.72,27.40 257.24,27.43 258.75,27.45 260.26,27.47 261.77,27.49 263.27,27.50 264.77,27.51 265.99,27.49 267.20,27.46 268.29,27.43 269.38,27.40 270.74,27.32 272.10,27.23 273.83,27.63 275.57,28.02 277.29,28.35 279.01,28.69 280.41,29.17 281.81,29.65 283.69,30.27 285.57,30.88 288.44,31.81 291.32,32.74 294.01,33.78 296.69,34.81 299.17,35.55 301.65,36.28 304.22,37.22 306.79,38.16 309.31,39.15 311.83,40.14 314.07,41.16 316.32,42.19 318.35,42.89 320.38,43.60 321.81,44.49 323.23,45.39 324.31,45.94 325.39,46.48 326.56,47.98 327.72,49.48 328.02,50.78 328.31,52.08 328.43,53.15 328.55,54.22 328.67,55.74 328.79,57.25 328.88,58.75 328.97,60.26 329.04,61.76 329.11,63.26 329.17,64.76 329.22,66.26 329.26,67.76 329.31,69.26 329.32,70.54 329.33,71.83 329.70,73.12 330.07,74.41 327.38,74.62 324.69,74.84 325.60,73.73 326.50,72.61 326.44,71.47 326.39,70.33 326.70,68.94 327.00,67.55 327.61,66.65 328.22,65.76 328.28,63.58 328.34,61.41 328.40,59.93 328.46,58.45 328.97,57.19 329.47,55.93 330.16,54.67 330.86,53.40 331.56,52.54 332.26,51.67 332.93,50.06 333.60,48.45 334.47,47.50 335.33,46.55 336.07,45.37 336.80,44.19 337.74,43.27 338.67,42.34 340.27,41.17 341.86,39.99 343.32,39.46 344.78,38.92 345.84,38.52 346.91,38.11 347.87,37.54 348.84,36.96 350.53,35.86 352.23,34.77 353.55,34.63 354.87,34.49 356.07,34.07 357.26,33.65 358.34,33.59 359.41,33.54 361.25,33.16 363.08,32.78 364.50,32.77 365.91,32.76 367.88,32.36 369.85,31.97 371.70,31.88 373.56,31.79 375.25,31.77 376.94,31.75 379.07,31.35 381.20,30.94 382.61,30.83 384.02,30.73 385.82,30.72 387.62,30.71 388.88,30.75 390.14,30.79 391.53,30.84 392.93,30.90 394.38,30.96 395.84,31.01 397.72,30.93 399.60,30.84 401.73,30.85 403.86,30.85 406.21,30.93 408.55,31.01 410.69,31.09 412.83,31.16 414.89,31.21 416.95,31.26 418.98,31.29 421.00,31.32 423.30,31.36 425.60,31.41 427.72,31.45 429.85,31.49 431.33,31.40 432.81,31.31 434.30,31.24 435.79,31.17 437.39,31.00 438.99,30.83 440.10,30.72 441.21,30.60 442.73,30.46 444.25,30.33 446.24,30.28 448.22,30.24 449.60,30.25 450.97,30.27 452.70,30.35 454.43,30.43 456.03,30.46 457.63,30.50 459.46,30.57 461.29,30.65 463.22,30.73 465.15,30.81 467.40,30.93 469.66,31.04 471.48,31.06 473.30,31.07 475.23,31.10 477.15,31.13 479.12,31.17 481.09,31.20 483.07,31.23 485.06,31.26 487.17,31.59 489.29,31.91 490.94,31.99 492.59,32.06 493.87,32.03 495.15,32.00 496.26,31.94 497.37,31.89 499.43,31.77 501.49,31.65 503.79,31.58 506.09,31.51 507.50,31.51 508.91,31.51 510.08,31.48 511.26,31.45 512.62,31.45 513.98,31.44 515.42,31.45 516.86,31.46 518.34,31.47 519.81,31.48 521.59,31.55 523.37,31.62 525.19,31.95 527.01,32.28 528.99,32.51 530.97,32.75 532.43,32.77 533.88,32.79 535.64,32.84 537.39,32.88 539.00,32.88 540.62,32.88 541.88,32.83 543.14,32.78 544.60,32.66 546.05,32.54 547.14,32.45 548.22,32.36 549.89,31.85 551.56,31.34 552.97,30.81 554.39,30.28 555.87,29.58 557.35,28.88 558.67,28.58 559.98,28.28 562.36,27.77 564.73,27.27 566.52,26.59 568.31,25.91 569.70,25.45 571.09,24.98 572.44,24.72 573.79,24.46 575.80,23.91 577.82,23.35 579.07,22.84 580.32,22.32 581.73,21.33 583.14,20.34 584.20,19.77 585.26,19.19 586.49,18.40 587.72,17.61 588.37,16.33 589.03,15.05 589.79,13.60 590.55,12.16 591.11,11.01 591.66,9.85 592.63,7.91 593.60,5.98 593.56,4.82 593.52,3.65 593.80,2.63 594.08,1.60 594.68,0.71 595.27,-0.17 594.87,-1.59 594.47,-3.02 594.56,-3.59 594.66,-4.15 594.93,-4.65 595.20,-5.15 595.62,-5.54 596.04,-5.93 596.56,-6.17 597.08,-6.40 597.65,-6.46 598.21,-6.52 598.77,-6.39 599.33,-6.26 599.81,-5.96 600.30,-5.66 600.67,-5.23 601.03,-4.79 601.24,-4.26 601.45,-3.72 601.47,-3.15 601.50,-2.58 601.34,-2.04 601.18,-1.49 600.86,-1.02 600.54,-0.55 600.08,-0.21 599.62,0.12 599.08,0.30 598.54,0.48 597.97,0.48 597.40,0.47 596.86,0.28 596.32,0.10 595.87,-0.24 595.41,-0.59 595.10,-1.07 594.78,-1.54 594.63,-2.09 594.49,-2.64 594.52,-3.21 594.56,-3.78 594.77,-4.31 594.99,-4.84 595.36,-5.27 595.73,-5.70 596.23,-5.99 596.72,-6.28 597.28,-6.40 597.83,-6.52 598.40,-6.45 598.97,-6.39 599.48,-6.14 600.00,-5.90 600.41,-5.50 600.82,-5.11 601.08,-4.60 601.35,-4.09 601.43,-3.53 601.52,-2.97 601.52,-2.97 601.52,-2.97 601.46,-0.95 601.41,1.06 600.92,2.44 600.43,3.82 600.36,5.00 600.30,6.19 599.80,7.92 599.30,9.65 598.80,10.72 598.31,11.79 597.64,12.80 596.98,13.82 596.42,14.98 595.87,16.13 595.23,17.56 594.59,18.99 593.70,19.93 592.81,20.87 591.99,21.68 591.17,22.49 590.12,23.34 589.07,24.18 588.07,24.65 587.06,25.12 585.44,26.10 583.82,27.09 582.42,27.65 581.02,28.22 579.06,28.71 577.09,29.19 575.06,29.80 573.03,30.41 571.81,30.89 570.58,31.37 569.41,31.86 568.23,32.34 565.90,32.87 563.57,33.39 561.73,33.89 559.88,34.40 558.90,34.85 557.92,35.31 556.46,35.76 554.99,36.22 553.82,36.56 552.64,36.91 551.54,37.32 550.43,37.74 549.33,37.68 548.22,37.63 547.13,37.54 546.05,37.45 544.59,37.32 543.12,37.20 541.86,37.14 540.59,37.08 538.97,37.06 537.34,37.04 535.54,37.05 533.74,37.05 532.24,36.96 530.74,36.87 528.47,36.87 526.20,36.86 524.78,36.62 523.36,36.37 521.59,36.44 519.81,36.51 518.34,36.52 516.86,36.53 515.42,36.54 513.98,36.55 512.62,36.54 511.26,36.54 510.08,36.51 508.91,36.48 507.50,36.48 506.08,36.48 504.79,36.45 503.50,36.43 501.46,36.31 499.42,36.20 498.35,36.12 497.29,36.04 496.14,35.94 494.99,35.84 493.67,35.70 492.34,35.56 490.58,35.40 488.81,35.23 486.93,34.98 485.06,34.73 483.07,34.76 481.09,34.79 479.12,34.82 477.15,34.86 475.23,34.89 473.30,34.92 471.48,34.93 469.66,34.95 467.40,35.06 465.15,35.18 463.22,35.26 461.29,35.34 459.46,35.42 457.63,35.49 456.03,35.53 454.43,35.56 452.70,35.64 450.97,35.72 449.60,35.74 448.22,35.75 446.24,35.71 444.25,35.66 442.73,35.53 441.21,35.39 440.10,35.27 438.99,35.16 437.39,34.99 435.79,34.82 434.30,34.75 432.81,34.69 431.33,34.60 429.85,34.51 427.73,34.54 425.60,34.58 423.30,34.63 421.01,34.69 418.99,34.72 416.97,34.76 414.92,34.83 412.87,34.89 410.76,35.01 408.65,35.13 406.39,35.32 404.14,35.50 402.23,35.75 400.32,36.00 398.08,36.49 395.85,36.98 394.39,37.03 392.93,37.09 391.54,37.15 390.14,37.21 387.98,37.26 385.82,37.31 384.53,37.33 383.24,37.34 382.04,37.43 380.85,37.51 379.52,37.89 378.20,38.26 376.90,38.25 375.60,38.24 373.82,38.28 372.03,38.32 370.47,38.45 368.90,38.57 367.60,38.98 366.30,39.40 364.47,39.59 362.64,39.77 360.33,40.17 358.02,40.57 356.83,41.07 355.65,41.58 354.40,41.76 353.14,41.94 352.09,42.41 351.03,42.88 349.99,43.48 348.95,44.07 347.63,44.77 346.30,45.47 345.09,46.37 343.87,47.27 342.59,48.58 341.31,49.89 340.53,50.64 339.75,51.39 338.97,53.07 338.19,54.75 337.65,55.83 337.12,56.90 336.65,57.92 336.18,58.94 335.83,60.03 335.47,61.12 334.99,62.72 334.52,64.32 334.50,65.70 334.48,67.08 333.99,68.49 333.51,69.90 333.36,71.27 333.21,72.64 332.66,74.18 332.10,75.73 331.24,77.15 330.38,78.58 327.31,77.80 324.25,77.01 323.44,75.04 322.64,73.08 322.65,71.67 322.66,70.26 322.70,68.76 322.74,67.26 322.79,65.76 322.84,64.26 322.90,62.76 322.97,61.26 323.05,59.76 323.13,58.26 323.24,56.76 323.34,55.27 323.46,53.84 323.57,52.41 323.50,50.99 323.42,49.56 322.35,48.79 321.28,48.02 320.35,47.17 319.42,46.32 317.27,45.62 315.12,44.92 312.92,43.99 310.73,43.07 308.23,42.18 305.72,41.29 303.24,40.51 300.75,39.72 298.09,39.11 295.44,38.50 292.81,37.73 290.18,36.95 287.31,36.34 284.44,35.72 282.28,35.39 280.12,35.06 278.77,34.68 277.43,34.30 276.40,34.01 275.37,33.72 273.73,33.24 272.10,32.76 270.74,32.67 269.38,32.59 268.29,32.56 267.20,32.53 265.99,32.50 264.77,32.48 263.27,32.49 261.77,32.50 260.26,32.52 258.75,32.54 257.24,32.56 255.72,32.59 254.18,32.62 252.64,32.65 251.05,32.71 249.46,32.76 247.75,32.85 246.03,32.95 244.70,32.98 243.37,33.01 242.28,33.02 241.18,33.02 240.00,32.97 238.82,32.92 237.52,32.86 236.21,32.80 235.12,32.72 234.03,32.65 232.51,32.56 230.98,32.46 229.62,32.45 228.26,32.44 227.09,32.40 225.92,32.36 224.52,32.34 223.12,32.32 221.85,32.28 220.58,32.24 218.94,32.25 217.31,32.27 215.49,32.33 213.67,32.39 212.10,32.41 210.52,32.43 208.85,32.47 207.18,32.52 205.27,32.64 203.37,32.76 201.59,32.87 199.82,32.98 198.35,33.04 196.87,33.11 195.44,33.17 194.01,33.24 192.66,33.29 191.31,33.35 189.53,33.38 187.75,33.41 186.28,33.42 184.82,33.42 183.50,33.42 182.18,33.42 181.00,33.40 179.82,33.39 178.00,33.38 176.18,33.36 175.00,33.34 173.82,33.32 172.00,33.30 170.17,33.27 168.98,33.24 167.79,33.22 166.41,33.19 165.03,33.17 163.51,33.15 161.99,33.12 160.39,33.10 158.79,33.07 157.42,33.04 156.05,33.00 154.58,32.95 153.10,32.90 151.76,32.84 150.42,32.77 149.35,32.75 148.28,32.73 147.12,32.72 145.97,32.71 144.59,32.73 143.22,32.74 142.02,32.74 140.82,32.73 139.35,32.77 137.87,32.80 136.44,32.84 135.00,32.88 133.65,32.91 132.31,32.93 131.17,32.94 130.02,32.95 128.69,32.98 127.36,33.02 126.25,33.04 125.14,33.05 123.90,33.10 122.66,33.16 120.96,33.28 119.25,33.41 117.81,33.76 116.37,34.11 115.24,34.13 114.10,34.14 112.82,34.18 111.54,34.23 109.59,34.24 107.64,34.26 105.93,34.27 104.22,34.28 103.07,34.28 101.93,34.28 100.82,34.36 99.71,34.44 97.65,34.79 95.60,35.14 93.78,35.14 91.96,35.13 90.29,35.11 88.62,35.10 86.85,35.08 85.09,35.06 83.80,35.10 82.51,35.14 80.50,35.19 78.49,35.23 76.50,35.41 74.50,35.58 73.10,35.94 71.69,36.31 69.97,36.32 68.25,36.33 66.73,36.29 65.20,36.25 64.08,36.22 62.96,36.19 61.29,36.18 59.61,36.17 57.84,36.17 56.06,36.16 53.70,36.23 51.34,36.29 50.22,36.32 49.10,36.35 47.82,36.40 46.54,36.46 44.60,36.51 42.65,36.55 40.95,36.59 39.26,36.62 37.76,36.62 36.26,36.62 34.75,36.61 33.25,36.61 31.74,36.60 30.22,36.59 29.15,36.58 28.07,36.56 26.73,36.45 25.38,36.34 23.82,35.99 22.25,35.63 20.72,35.62 19.19,35.61 18.03,35.57 16.87,35.52 15.39,35.02 13.91,34.52 12.60,34.38 11.30,34.24 9.77,33.71 8.24,33.18 7.18,32.62 6.11,32.06 4.84,30.77 3.57,29.48 2.40,28.29 1.22,27.10 0.71,25.49 0.20,23.89 -0.55,22.50 -1.30,21.10 -1.80,20.01 -2.31,18.92 -2.76,16.87 -3.22,14.82 -3.67,13.64 -4.12,12.46 -4.10,11.33 -4.08,10.20 -4.00,9.07 -3.92,7.94 -3.36,6.43 -2.80,4.93 -2.75,3.61 -2.69,2.3 -2.68,1.15 -2.66,0 -2.62,-0.31 -2.58,-0.63 -2.47,-0.93 -2.35,-1.23 -2.17,-1.50 -1.99,-1.76 -1.75,-1.98 -1.51,-2.19 -1.22,-2.34 -0.94,-2.49 -0.63,-2.56 -0.32,-2.64 0.00,-2.64 0.32,-2.64 0.63,-2.56 0.94,-2.49 1.22,-2.34 1.51,-2.19 1.75,-1.98 1.99,-1.76 2.17,-1.50 2.35,-1.23 2.47,-0.93 2.58,-0.63 2.62,-0.31 2.66,0.00 2.66,0.00 L 2.66,0 Z"></path></g><g transform="translate(317 332) rotate(0 64.74996948242188 17.5)"><text x="0" y="24.528" font-family="Virgil, Segoe UI Emoji" font-size="28px" fill="#1e1e1e" text-anchor="start" style="white-space: pre;" direction="ltr" dominant-baseline="alphabetic">Read-only</text></g></svg>